<mxfile host="app.diagrams.net" modified="2024-05-07T16:22:24.971Z" agent="Mozilla/5.0 (Windows NT 10.0; Win64; x64; rv:123.0) Gecko/20100101 Firefox/123.0" version="24.3.1" etag="yACr6avmwO_7EhsWbX1p" type="github">
  <diagram name="Seite-1" id="F_if7VaUR4xC1NGNqq4w">
    <mxGraphModel>
      <root>
        <mxCell id="0" />
        <mxCell id="1" parent="0" />
      </root>
    </mxGraphModel>
  </diagram>
</mxfile>
